<?xml version="1.0" encoding="utf-8"?>
<!-- Generator: Adobe Illustrator 27.5.0, SVG Export Plug-In . SVG Version: 6.00 Build 0)  -->
<svg version="1.1" xmlns="http://www.w3.org/2000/svg" xmlns:xlink="http://www.w3.org/1999/xlink" x="0px" y="0px"
	 viewBox="0 0 750 500" style="enable-background:new 0 0 750 500;" xml:space="preserve">
<g id="Background_Simple">
	<g>
		<path style="fill:#92E3A9;" d="M692.599,54.799c-12.346,1.851-27.431,7.008-34.132,8.253
			c-35.27,6.549-70.615,12.353-106.009,17.364c-57.545,8.146-115.363,14.532-173.117,15.812
			c-85.947,1.904-170.272-17.85-255.165-28.215C103.99,65.549,43.31,50.544,33.156,83.88c-13.17,43.24-12.618,95.179-14.081,140.376
			c-1.561,48.215-3.073,96.372-3.528,144.529c-0.156,16.488,1.094,33.427,7.194,47.844c7.636,18.048,21.825,25.806,37.681,28.328
			c28.683,4.562,57.85,3.128,86.811,1.988c39.156-1.541,78.305-5.182,117.411-9.052c67.687-6.699,136.514-18.027,204.278-15.551
			c47.569,1.738,94.358,11.144,141.025,20.579c18.901,3.822,37.454,9.732,56.608,11.937c15.513,1.786,39.218,3.51,51.965-11.057
			c10.706-12.234,11.143-40.841,12.507-56.827c2.938-34.44,3.303-69.142,3.102-103.61c-0.375-64.594-1.144-131.782-10.832-195.096
			C720.012,66.799,711.952,51.898,692.599,54.799z"/>
		<path style="opacity:0.7;fill:#FFFFFF;" d="M692.599,54.799c-12.346,1.851-27.431,7.008-34.132,8.253
			c-35.27,6.549-70.615,12.353-106.009,17.364c-57.545,8.146-115.363,14.532-173.117,15.812
			c-85.947,1.904-170.272-17.85-255.165-28.215C103.99,65.549,43.31,50.544,33.156,83.88c-13.17,43.24-12.618,95.179-14.081,140.376
			c-1.561,48.215-3.073,96.372-3.528,144.529c-0.156,16.488,1.094,33.427,7.194,47.844c7.636,18.048,21.825,25.806,37.681,28.328
			c28.683,4.562,57.85,3.128,86.811,1.988c39.156-1.541,78.305-5.182,117.411-9.052c67.687-6.699,136.514-18.027,204.278-15.551
			c47.569,1.738,94.358,11.144,141.025,20.579c18.901,3.822,37.454,9.732,56.608,11.937c15.513,1.786,39.218,3.51,51.965-11.057
			c10.706-12.234,11.143-40.841,12.507-56.827c2.938-34.44,3.303-69.142,3.102-103.61c-0.375-64.594-1.144-131.782-10.832-195.096
			C720.012,66.799,711.952,51.898,692.599,54.799z"/>
	</g>
</g>
<g id="Floor">
	<ellipse style="opacity:0.18;" cx="375.579" cy="451.14" rx="348.854" ry="9.669"/>
</g>
<g id="Plants">
	<g style="opacity:0.2;">
		<path d="M151.861,285.768c4.073-1.146,11.275-7.319,11.281-7.324c0.075-0.064-5.51-3.512-5.888-3.69
			c-4.367-2.05-14.013-3.443-17.697,0.509c-2.654,2.847-1.868,7.193,1.106,9.451C143.702,287.022,148.392,286.743,151.861,285.768z"
			/>
		<path d="M171.797,304.95c3.484-2.094,8.478-9.355,8.872-9.935c4.036,2.82,8.405,5.386,12.97,7.738
			c2.608,1.349,5.278,2.625,7.969,3.871c-1.313-0.386-2.491-0.721-2.661-0.751c-4.755-0.823-14.425,0.381-16.933,5.165
			c-1.81,3.447,0.097,7.43,3.562,8.823c3.538,1.423,7.99-0.085,11.077-1.942c3.135-1.884,7.516-7.989,8.654-9.621
			c1.038,0.468,2.069,0.946,3.109,1.408c4.988,2.224,9.975,4.421,14.801,6.726c1.701,0.811,3.346,1.673,4.996,2.529
			c-1.168-0.342-2.154-0.619-2.309-0.647c-4.754-0.823-14.424,0.38-16.934,5.165c-1.808,3.447,0.097,7.431,3.562,8.824
			c3.54,1.422,7.99-0.085,11.078-1.943c2.991-1.797,7.086-7.396,8.447-9.328c1.663,0.928,3.33,1.854,4.899,2.828
			c1.057,0.689,2.122,1.279,3.143,2.031c1.029,0.722,2.046,1.438,3.054,2.147c1.891,1.435,3.851,2.904,5.66,4.351
			c1.266,0.997,2.454,1.97,3.654,2.947c-1.684-0.828-5.014-2.378-5.307-2.476c-4.573-1.535-14.314-1.809-17.52,2.54
			c-2.31,3.134-1.03,7.36,2.185,9.261c3.282,1.942,7.909,1.127,11.243-0.241c3.671-1.507,9.499-7.648,10.222-8.42
			c1.98,1.623,3.89,3.221,5.668,4.757c3.934,3.383,7.361,6.496,10.217,9.168l2.74-2.244c-3.019-2.712-6.67-5.898-10.895-9.372
			c-2.003-1.657-4.177-3.387-6.426-5.142c0.33-0.594,2.184-3.985,3.516-7.369c4.037,0.566,11.74-1.212,12.732-1.448
			c0.757,2.446,1.468,4.832,2.103,7.094c1.341,4.73,2.434,9.004,3.318,12.677l2.963-2.426c-0.894-3.321-1.955-7.068-3.21-11.155
			c-0.757-2.487-1.616-5.13-2.523-7.834c0.921-0.48,8.425-4.441,10.87-7.573c2.216-2.841,4.25-7.077,3.267-10.763
			c-0.963-3.608-4.688-5.981-8.33-4.601c-5.052,1.912-7.417,11.366-7.173,16.185c0.014,0.285,0.514,3.351,0.862,5.28
			c-0.377-1.103-0.73-2.178-1.132-3.309c-0.778-2.242-1.622-4.456-2.521-6.841c-0.474-1.137-0.954-2.285-1.437-3.445
			c-0.456-1.16-1.085-2.328-1.626-3.505c-1.314-2.705-2.777-5.38-4.31-8.043c1.961-0.688,8.891-3.227,11.524-5.711
			c2.622-2.473,5.274-6.35,4.859-10.143c-0.405-3.712-3.728-6.622-7.535-5.812c-5.285,1.126-9.053,10.113-9.543,14.913
			c-0.031,0.299,0.005,3.783,0.061,5.696c-0.934-1.594-1.859-3.189-2.857-4.771c-2.879-4.566-5.936-9.099-8.965-13.634
			c-0.929-1.389-1.837-2.784-2.752-4.177c0.701-0.237,9.003-3.077,11.953-5.86c2.622-2.472,5.274-6.351,4.859-10.143
			c-0.405-3.712-3.728-6.622-7.534-5.81c-5.285,1.126-9.054,10.112-9.543,14.911c-0.037,0.361,0.021,5.374,0.099,6.649
			c-2.014-3.069-3.992-6.145-5.819-9.257c-2.527-4.289-4.769-8.639-6.63-13.013c0.326-0.109,9.005-3.035,12.026-5.884
			c2.622-2.473,5.274-6.352,4.859-10.143c-0.406-3.712-3.727-6.622-7.535-5.811c-5.285,1.126-9.053,10.112-9.543,14.912
			c-0.037,0.376,0.028,5.77,0.11,6.747c-0.109-0.261-0.253-0.518-0.359-0.779c-1.927-4.695-3.204-9.485-4.18-14.028
			c-0.572-2.639-0.972-5.194-1.305-7.687c1.673-0.38,9.296-2.197,12.298-4.46c2.877-2.17,5.94-5.734,5.944-9.548
			c0.005-3.735-2.978-6.992-6.851-6.604c-5.377,0.539-10.109,9.057-11.123,13.774c-0.055,0.256-0.327,2.926-0.497,4.873
			c-0.134-1.128-0.292-2.289-0.398-3.372c-0.408-4.066-0.53-7.813-0.613-11.134c-0.031-1.888-0.022-3.596,0.004-5.195
			c1.447-1.227,7.215-6.25,8.807-9.582c1.553-3.251,2.63-7.825,0.876-11.213c-1.718-3.317-5.866-4.833-9.124-2.704
			c-4.523,2.955-4.799,12.696-3.525,17.35c0.111,0.402,2.555,6.494,2.631,6.431c0,0,0.071-0.059,0.088-0.074
			c-0.056,1.538-0.097,3.186-0.106,4.989c0.009,3.329,0.05,7.089,0.372,11.179c0.31,4.089,0.762,8.522,1.659,13.148
			c0.893,4.639,2.07,9.472,3.926,14.296c0.02,0.055,0.05,0.109,0.07,0.164c-0.981-1.243-3.84-4.625-4.089-4.858
			c-3.511-3.309-12.24-7.641-16.974-5.035c-3.409,1.878-4.018,6.252-1.896,9.325c2.168,3.138,6.71,4.336,10.312,4.491
			c4.06,0.175,12.231-3.127,12.88-3.391c1.809,4.577,4.039,9.127,6.548,13.608c1.432,2.564,2.954,5.101,4.513,7.626
			c-0.883-1.047-1.68-1.977-1.806-2.094c-3.512-3.31-12.24-7.64-16.974-5.034c-3.41,1.877-4.018,6.252-1.895,9.325
			c2.167,3.139,6.71,4.336,10.31,4.492c3.654,0.156,10.677-2.517,12.525-3.25c0.608,0.962,1.205,1.93,1.817,2.89
			c2.933,4.606,5.881,9.189,8.634,13.774c0.972,1.615,1.869,3.241,2.771,4.865c-0.785-0.928-1.454-1.704-1.568-1.812
			c-3.511-3.31-12.24-7.641-16.973-5.035c-3.41,1.879-4.019,6.252-1.897,9.327c2.166,3.137,6.711,4.336,10.311,4.49
			c3.486,0.151,9.991-2.26,12.191-3.12c0.875,1.691,1.754,3.383,2.526,5.061c0.501,1.158,1.063,2.237,1.502,3.428
			c0.458,1.169,0.914,2.327,1.363,3.474c0.785,2.241,1.609,4.547,2.321,6.752c0.506,1.53,0.96,2.997,1.422,4.473
			c-0.948-1.618-2.87-4.749-3.06-4.992c-1.973-2.526-6.155-5.837-10.228-7.236c-0.289-0.375-0.609-0.723-0.964-1.038
			c-2.795-2.477-7.21-2.402-9.486,0.756c-3.16,4.383,0.084,13.572,2.946,17.456c0.169,0.23,2.278,2.512,3.632,3.93
			c-0.924-0.712-1.811-1.414-2.77-2.136c-1.887-1.44-3.812-2.821-5.878-4.316c-1.022-0.686-2.056-1.379-3.1-2.079
			c-1.019-0.716-2.188-1.342-3.29-2.026c-2.587-1.53-5.285-2.956-8.033-4.331c1.258-1.656,5.636-7.597,6.462-11.121
			c0.823-3.509,0.895-8.207-1.542-11.14c-2.387-2.873-6.762-3.468-9.491-0.691c-3.787,3.854-1.973,13.429,0.266,17.703
			c0.14,0.267,2.092,3.152,3.194,4.717c-1.658-0.814-3.31-1.634-5.015-2.403c-4.92-2.221-9.97-4.315-14.998-6.426
			c-1.541-0.646-3.068-1.308-4.6-1.965c0.454-0.585,5.811-7.535,6.736-11.482c0.823-3.508,0.895-8.206-1.542-11.141
			c-2.386-2.872-6.762-3.467-9.49-0.69c-3.787,3.854-1.973,13.428,0.266,17.702c0.169,0.322,2.983,4.47,3.75,5.49
			c-3.371-1.448-6.719-2.922-9.96-4.51c-4.474-2.185-8.743-4.574-12.708-7.197c0.212-0.272,5.835-7.5,6.783-11.543
			c0.823-3.509,0.895-8.207-1.543-11.14c-2.386-2.873-6.762-3.467-9.49-0.69c-3.787,3.854-1.972,13.428,0.267,17.702
			c0.176,0.336,3.206,4.797,3.812,5.566c-0.235-0.156-0.497-0.292-0.729-0.45c-4.197-2.854-7.905-6.144-11.226-9.396
			c-1.933-1.885-3.674-3.795-5.328-5.692c1.185-1.239,6.541-6.96,7.796-10.505c1.203-3.398,1.791-8.059-0.309-11.242
			c-2.057-3.117-6.342-4.189-9.357-1.729c-4.187,3.415-3.436,13.131-1.679,17.625c0.096,0.245,1.341,2.621,2.273,4.339
			c-0.733-0.867-1.506-1.749-2.191-2.594c-2.582-3.166-4.753-6.224-6.653-8.948c-1.068-1.558-2.003-2.988-2.862-4.335
			c0.528-1.823,2.569-9.194,2.059-12.851c-0.498-3.569-2.124-7.977-5.455-9.835c-3.262-1.819-7.558-0.795-9.101,2.777
			c-2.142,4.961,3.002,13.237,6.631,16.417c0.314,0.273,5.713,4.007,5.742,3.912c0,0,0.026-0.089,0.031-0.11
			c0.802,1.313,1.678,2.711,2.665,4.219c1.844,2.772,3.953,5.885,6.477,9.12c2.514,3.238,5.336,6.688,8.637,10.051
			c3.304,3.375,6.951,6.758,11.161,9.758c0.048,0.034,0.102,0.063,0.149,0.096c-1.504-0.495-5.755-1.737-6.092-1.795
			c-4.754-0.824-14.424,0.38-16.934,5.164c-1.808,3.447,0.097,7.432,3.563,8.824C164.26,308.313,168.709,306.806,171.797,304.95z"/>
		<path d="M227.406,226.612c0.098-0.013-2.659-5.97-2.875-6.326c-2.513-4.118-9.789-10.6-15.043-9.337
			c-3.784,0.91-5.526,4.968-4.289,8.493c1.26,3.599,5.326,5.954,8.758,7.054C217.985,227.789,227.398,226.613,227.406,226.612z"/>
	</g>
	<g style="opacity:0.2;">
		<path d="M552.918,235.861c1.196,3.373,6.811,9.104,6.815,9.108c0.058,0.059,2.654-4.848,2.782-5.176
			c1.484-3.801,2.117-12.019-1.425-14.906c-2.552-2.08-6.175-1.172-7.914,1.465C551.401,229.046,551.9,232.988,552.918,235.861z"/>
		<path d="M537.852,253.764c1.963,2.822,8.372,6.628,8.883,6.929c-2.153,3.565-4.072,7.396-5.801,11.381
			c-0.991,2.277-1.918,4.602-2.819,6.943c0.252-1.13,0.469-2.143,0.484-2.288c0.427-4.059-1.133-12.152-5.312-14
			c-3.011-1.333-6.265,0.5-7.246,3.502c-1.002,3.066,0.521,6.738,2.261,9.239c1.767,2.539,7.165,5.893,8.606,6.762
			c-0.336,0.902-0.682,1.799-1.014,2.703c-1.596,4.334-3.17,8.667-4.843,12.869c-0.589,1.481-1.224,2.918-1.853,4.358
			c0.223-1.005,0.402-1.852,0.416-1.985c0.427-4.058-1.132-12.151-5.312-14c-3.011-1.332-6.266,0.5-7.246,3.503
			c-1.001,3.067,0.521,6.738,2.263,9.24c1.685,2.423,6.641,5.564,8.347,6.604c-0.689,1.455-1.377,2.914-2.111,4.293
			c-0.522,0.931-0.96,1.863-1.537,2.767c-0.552,0.909-1.099,1.808-1.64,2.698c-1.104,1.676-2.234,3.413-3.353,5.022
			c-0.77,1.124-1.524,2.182-2.281,3.25c0.604-1.467,1.725-4.365,1.791-4.618c1.038-3.946,0.722-12.181-3.129-14.643
			c-2.774-1.773-6.269-0.455-7.692,2.365c-1.454,2.879-0.506,6.738,0.836,9.475c1.478,3.013,6.989,7.586,7.681,8.153
			c-1.259,1.762-2.499,3.464-3.696,5.051c-2.633,3.51-5.068,6.578-7.162,9.138l2.048,2.186c2.119-2.7,4.602-5.961,7.297-9.722
			c1.285-1.784,2.623-3.716,3.978-5.712c0.52,0.245,3.486,1.619,6.417,2.553c-0.25,3.439,1.683,9.84,1.938,10.664
			c-2.021,0.776-3.996,1.511-5.869,2.174c-3.917,1.397-7.461,2.561-10.512,3.513l2.214,2.364c2.752-0.941,5.855-2.047,9.234-3.337
			c2.056-0.779,4.239-1.652,6.469-2.57c0.456,0.75,4.222,6.86,7.003,8.747c2.522,1.71,6.211,3.189,9.266,2.152
			c2.991-1.016,4.784-4.293,3.415-7.288c-1.898-4.156-10.009-5.62-14.062-5.143c-0.239,0.027-2.799,0.622-4.408,1.024
			c0.909-0.38,1.797-0.739,2.729-1.142c1.848-0.783,3.669-1.619,5.632-2.512c0.933-0.464,1.875-0.934,2.826-1.407
			c0.953-0.45,1.903-1.046,2.867-1.57c2.209-1.261,4.384-2.646,6.546-4.09c0.69,1.616,3.223,7.322,5.468,9.404
			c2.234,2.073,5.656,4.093,8.833,3.53c3.11-0.551,5.379-3.518,4.481-6.686c-1.248-4.396-9.044-7.072-13.122-7.215
			c-0.254-0.009-3.192,0.217-4.803,0.372c1.292-0.878,2.587-1.748,3.865-2.68c3.692-2.686,7.345-5.521,11.002-8.332
			c1.12-0.862,2.246-1.707,3.37-2.557c0.239,0.578,3.103,7.424,5.617,9.757c2.234,2.073,5.656,4.093,8.833,3.53
			c3.11-0.551,5.379-3.518,4.48-6.685c-1.247-4.396-9.042-7.072-13.121-7.215c-0.307-0.011-4.534,0.32-5.605,0.457
			c2.477-1.872,4.961-3.715,7.485-5.432c3.478-2.374,7.022-4.51,10.609-6.327c0.11,0.269,3.068,7.428,5.642,9.818
			c2.235,2.073,5.657,4.094,8.833,3.53c3.11-0.551,5.379-3.518,4.48-6.686c-1.248-4.397-9.043-7.071-13.121-7.215
			c-0.319-0.01-4.867,0.348-5.687,0.472c0.214-0.107,0.423-0.242,0.638-0.347c3.854-1.89,7.824-3.238,11.603-4.317
			c2.195-0.632,4.328-1.112,6.414-1.534c0.414,1.39,2.377,7.721,4.456,10.127c1.993,2.306,5.173,4.69,8.392,4.479
			c3.152-0.206,5.733-2.906,5.188-6.153c-0.757-4.507-8.212-8.021-12.249-8.612c-0.219-0.032-2.488-0.111-4.14-0.145
			c0.944-0.176,1.915-0.375,2.823-0.525c3.408-0.573,6.564-0.887,9.362-1.143c1.591-0.132,3.033-0.221,4.384-0.289
			c1.117,1.152,5.681,5.737,8.582,6.894c2.831,1.127,6.752,1.779,9.512,0.108c2.702-1.636,3.749-5.222,1.769-7.852
			c-2.748-3.651-10.984-3.336-14.84-1.999c-0.333,0.116-5.337,2.521-5.279,2.582c0,0,0.054,0.056,0.067,0.07
			c-1.301,0.039-2.694,0.097-4.216,0.191c-2.809,0.195-5.98,0.441-9.413,0.942c-3.433,0.491-7.149,1.122-11.003,2.139
			c-3.865,1.015-7.877,2.28-11.844,4.118c-0.045,0.02-0.089,0.048-0.134,0.069c0.993-0.898,3.687-3.501,3.87-3.724
			c2.595-3.149,5.76-10.759,3.294-14.608c-1.777-2.771-5.502-3.039-7.976-1.075c-2.527,2.006-3.282,5.907-3.21,8.955
			c0.081,3.436,3.327,10.146,3.586,10.679c-3.761,1.785-7.476,3.922-11.116,6.291c-2.083,1.353-4.139,2.78-6.182,4.237
			c0.834-0.804,1.574-1.529,1.666-1.642c2.596-3.15,5.759-10.759,3.294-14.608c-1.776-2.772-5.502-3.039-7.976-1.075
			c-2.527,2.005-3.282,5.906-3.211,8.953c0.073,3.092,2.724,8.868,3.447,10.387c-0.778,0.567-1.561,1.125-2.337,1.696
			c-3.722,2.735-7.424,5.48-11.138,8.061c-1.308,0.911-2.63,1.759-3.95,2.612c0.739-0.714,1.356-1.323,1.441-1.425
			c2.596-3.15,5.76-10.759,3.295-14.607c-1.777-2.772-5.502-3.04-7.978-1.076c-2.526,2.005-3.281,5.907-3.209,8.954
			c0.069,2.95,2.469,8.304,3.319,10.113c-1.378,0.834-2.756,1.671-4.129,2.417c-0.949,0.487-1.828,1.023-2.809,1.46
			c-0.961,0.453-1.913,0.902-2.855,1.346c-1.847,0.788-3.747,1.614-5.568,2.339c-1.262,0.513-2.475,0.979-3.695,1.452
			c1.313-0.891,3.847-2.689,4.041-2.863c2.021-1.807,4.58-5.522,5.531-9.039c0.3-0.265,0.576-0.554,0.822-0.872
			c1.933-2.498,1.622-6.22-1.172-7.963c-3.877-2.42-11.449,0.835-14.566,3.468c-0.185,0.155-1.991,2.063-3.112,3.286
			c0.549-0.819,1.092-1.608,1.647-2.458c1.109-1.673,2.166-3.375,3.312-5.203c0.522-0.901,1.048-1.813,1.581-2.733
			c0.547-0.901,1.01-1.922,1.525-2.89c1.146-2.27,2.197-4.626,3.203-7.023c1.468,0.968,6.728,4.329,9.749,4.828
			c3.007,0.497,6.976,0.293,9.315-1.928c2.29-2.176,2.546-5.902,0.049-8.048c-3.466-2.979-11.444-0.91-14.924,1.22
			c-0.217,0.133-2.543,1.942-3.801,2.961c0.593-1.445,1.193-2.885,1.746-4.367c1.598-4.277,3.081-8.656,4.58-13.019
			c0.458-1.337,0.931-2.663,1.399-3.992c0.519,0.35,6.685,4.48,10.069,5.039c3.006,0.497,6.976,0.294,9.315-1.928
			c2.289-2.175,2.546-5.902,0.048-8.048c-3.466-2.979-11.443-0.91-14.924,1.22c-0.262,0.161-3.604,2.768-4.422,3.473
			c1.032-2.926,2.088-5.835,3.246-8.659c1.592-3.899,3.369-7.636,5.358-11.129c0.242,0.163,6.658,4.503,10.123,5.075
			c3.007,0.497,6.976,0.294,9.315-1.928c2.291-2.175,2.546-5.901,0.049-8.048c-3.465-2.979-11.443-0.909-14.924,1.221
			c-0.274,0.167-3.868,2.975-4.483,3.53c0.118-0.207,0.218-0.436,0.339-0.641c2.173-3.703,4.741-7.017,7.298-10.002
			c1.482-1.737,2.996-3.314,4.503-4.816c1.112,0.93,6.242,5.128,9.303,5.988c2.935,0.824,6.902,1.058,9.47-0.893
			c2.515-1.911,3.178-5.587,0.933-7.994c-3.118-3.341-11.275-2.161-14.968-0.426c-0.201,0.094-2.137,1.279-3.534,2.163
			c0.691-0.667,1.391-1.37,2.065-1.995c2.527-2.357,4.986-4.362,7.177-6.118c1.255-0.989,2.409-1.858,3.497-2.659
			c1.568,0.343,7.903,1.651,10.961,1.015c2.984-0.621,6.612-2.241,7.993-5.157c1.352-2.855,0.246-6.423-2.855-7.524
			c-4.307-1.529-11.002,3.278-13.481,6.52c-0.213,0.28-3.06,5.047-2.979,5.066c0,0,0.077,0.017,0.094,0.02
			c-1.063,0.75-2.193,1.568-3.41,2.486c-2.235,1.712-4.745,3.667-7.332,5.979c-2.591,2.303-5.344,4.88-7.997,7.854
			c-2.663,2.978-5.313,6.247-7.607,9.968c-0.026,0.042-0.047,0.089-0.073,0.131c0.333-1.297,1.142-4.954,1.172-5.242
			c0.428-4.058-1.132-12.151-5.31-14c-3.011-1.332-6.266,0.5-7.247,3.503C534.59,247.592,536.112,251.262,537.852,253.764z"/>
		<path d="M607.09,296.287c0.016,0.082,4.888-2.579,5.177-2.782c3.334-2.352,8.395-8.857,7.033-13.22
			c-0.981-3.142-4.503-4.384-7.408-3.142c-2.967,1.266-4.725,4.83-5.461,7.788C605.567,288.402,607.089,296.28,607.09,296.287z"/>
	</g>
</g>
<g id="Charts">
	<g>
		
			<rect x="652.453" y="147.399" style="fill:none;stroke:#263238;stroke-linejoin:round;stroke-miterlimit:10;" width="12.73" height="82.374"/>
		
			<rect x="670.425" y="196.823" style="fill:none;stroke:#263238;stroke-linejoin:round;stroke-miterlimit:10;" width="12.73" height="32.95"/>
		
			<rect x="688.397" y="173.609" style="fill:none;stroke:#263238;stroke-linejoin:round;stroke-miterlimit:10;" width="12.731" height="56.164"/>
		
			<rect x="706.37" y="213.298" style="fill:none;stroke:#263238;stroke-linejoin:round;stroke-miterlimit:10;" width="12.73" height="16.475"/>
		<g>
			
				<line style="fill:none;stroke:#263238;stroke-linejoin:round;stroke-miterlimit:10;" x1="643.466" y1="148.897" x2="635.229" y2="148.897"/>
			
				<line style="fill:none;stroke:#263238;stroke-linejoin:round;stroke-miterlimit:10;" x1="643.466" y1="162.352" x2="635.229" y2="162.352"/>
			
				<line style="fill:none;stroke:#263238;stroke-linejoin:round;stroke-miterlimit:10;" x1="643.466" y1="175.809" x2="635.229" y2="175.809"/>
			
				<line style="fill:none;stroke:#263238;stroke-linejoin:round;stroke-miterlimit:10;" x1="643.466" y1="189.264" x2="635.229" y2="189.264"/>
			
				<line style="fill:none;stroke:#263238;stroke-linejoin:round;stroke-miterlimit:10;" x1="643.466" y1="202.721" x2="635.229" y2="202.721"/>
			
				<line style="fill:none;stroke:#263238;stroke-linejoin:round;stroke-miterlimit:10;" x1="643.466" y1="216.176" x2="635.229" y2="216.176"/>
			
				<line style="fill:none;stroke:#263238;stroke-linejoin:round;stroke-miterlimit:10;" x1="643.466" y1="229.633" x2="635.229" y2="229.633"/>
		</g>
	</g>
	<g>
		<circle style="fill:none;stroke:#263238;stroke-linejoin:round;stroke-miterlimit:10;" cx="681.327" cy="278.644" r="30.769"/>
		<polyline style="fill:none;stroke:#263238;stroke-linejoin:round;stroke-miterlimit:10;" points="681.327,247.875 
			681.327,278.644 709.944,290.825 		"/>
		
			<line style="fill:none;stroke:#263238;stroke-linejoin:round;stroke-miterlimit:10;" x1="681.327" y1="278.644" x2="701.983" y2="300.841"/>
	</g>
</g>
<g id="Gear">
	<g>
		<path style="fill:none;stroke:#263238;stroke-linejoin:round;stroke-miterlimit:10;" d="M453.889,276.2l25.12,3.461l6.041-26.47
			l-23.301-7.512c0-0.071,0.005-0.141,0.005-0.213c0-8.835-1.793-17.252-5.033-24.906l17.547-16.701l-16.928-21.227l-19.537,12.96
			c-6.881-5.524-14.922-9.659-23.709-11.966l-2.046-23.323h-27.151l-2.017,22.997c-8.884,2.127-17.045,6.105-24.056,11.509
			l-19.624-13.018l-16.928,21.227l17.177,16.349c-3.462,7.73-5.435,16.268-5.551,25.258l-23.317,7.518l6.042,26.47l24.603-3.39
			c3.896,7.394,9.193,13.932,15.547,19.258l-9.032,23.901l24.462,11.78l13.074-21.996c4.055,0.806,8.246,1.237,12.538,1.237
			c3.973,0,7.855-0.381,11.628-1.074l13.255,22.3l24.462-11.78l-8.992-23.796C444.546,289.858,449.902,283.459,453.889,276.2z
			 M348.759,245.466c0-27.094,21.964-49.058,49.058-49.058c27.094,0,49.058,21.964,49.058,49.058
			c0,27.094-21.964,49.058-49.058,49.058C370.723,294.524,348.759,272.56,348.759,245.466z"/>
	</g>
</g>
<g id="Clock">
	<g>
		
			<ellipse transform="matrix(0.7071 -0.7071 0.7071 0.7071 76.7884 427.6672)" style="fill:none;stroke:#263238;stroke-linejoin:round;stroke-miterlimit:10;" cx="554.634" cy="121.142" rx="30.54" ry="30.54"/>
		<circle style="fill:none;stroke:#263238;stroke-linejoin:round;stroke-miterlimit:10;" cx="554.634" cy="121.142" r="26.575"/>
		<polyline style="fill:none;stroke:#263238;stroke-linejoin:round;stroke-miterlimit:10;" points="546.546,128.432 
			554.634,121.142 539.535,107.4 		"/>
	</g>
</g>
<g id="Arrows">
	<g>
		<path style="fill:#92E3A9;stroke:#263238;stroke-linecap:round;stroke-linejoin:round;stroke-miterlimit:10;" d="M512.277,130.744
			c-30.997-30.825-72.188-47.801-115.985-47.8c-3.011,0-6.037,0.092-9.051,0.256l-3.002-12.838l-31.038,44.448l47.529,26.077
			l-2.394-10.236c30.346,0.516,58.8,12.505,80.318,33.904c22.001,21.879,34.21,51.06,34.377,82.167
			c0.167,30.936-11.647,60.148-33.264,82.256c-21.583,22.072-50.446,34.541-81.278,35.11c-0.73,0.014-1.462,0.02-2.196,0.02H68.682
			v47.681h327.612c1.032,0,2.062-0.01,3.081-0.028c43.429-0.801,84.088-18.362,114.485-49.447
			c30.448-31.138,47.088-72.282,46.853-115.848C560.478,202.667,543.276,161.571,512.277,130.744z"/>
		<path style="fill:#263238;stroke:#263238;stroke-linecap:round;stroke-linejoin:round;stroke-miterlimit:10;" d="M628.572,386.904
			l-40.343-36.214v12.373h-61.312c-2.111,2.391-4.286,4.739-6.532,7.036c-17.006,17.392-36.869,31.017-58.549,40.436l-0.191,0.209
			h126.584v12.373L628.572,386.904z"/>
		<path style="fill:#263238;stroke:#263238;stroke-linecap:round;stroke-linejoin:round;stroke-miterlimit:10;" d="M279.432,247.239
			c0-54.49,37.624-100.341,88.254-112.983l-26.399-16.016l23.953-31.306c-75.389,14.384-132.554,80.79-132.554,160.306
			c0,39.611,14.19,75.967,37.746,104.264h73.622C305.783,332.399,279.432,292.841,279.432,247.239z"/>
	</g>
	<path style="fill:#263238;" d="M624.563,114.379c-4.426-39.615-40.256-68.243-79.871-63.817
		c-29.321,3.276-52.606,23.762-60.942,50.247c6.729,3.927,13.208,8.333,19.393,13.204c3.659-21.556,21.206-39.041,43.992-41.587
		c27.559-3.079,52.485,16.837,55.564,44.396c2.459,22.006-9.729,42.753-29.506,51.532l-4.7-10.16l-13.251,29.616l31.15,9.077
		l-3.961-8.564C610.694,175.624,628.084,145.896,624.563,114.379z"/>
</g>
<g id="Box">
	<g>
		<g>
			
				<circle style="fill:#263238;stroke:#263238;stroke-linecap:round;stroke-linejoin:round;stroke-miterlimit:10;" cx="680.641" cy="390.236" r="41.806"/>
		</g>
		<g>
			<g>
				<polygon style="fill:#92E3A9;stroke:#263238;stroke-linecap:round;stroke-linejoin:round;stroke-miterlimit:10;" points="
					684.992,410.57 660.888,405.501 660.888,378.609 684.992,383.677 				"/>
				<polygon style="fill:#92E3A9;stroke:#263238;stroke-linecap:round;stroke-linejoin:round;stroke-miterlimit:10;" points="
					703.936,379.228 708.312,389.158 703.516,387.839 				"/>
				<polygon style="fill:#92E3A9;stroke:#263238;stroke-linecap:round;stroke-linejoin:round;stroke-miterlimit:10;" points="
					684.992,383.677 703.936,379.228 703.936,404.004 684.992,410.57 				"/>
				<polygon style="fill:#92E3A9;stroke:#263238;stroke-linecap:round;stroke-linejoin:round;stroke-miterlimit:10;" points="
					703.936,379.228 681.947,373.344 660.888,378.609 684.992,383.677 				"/>
				<polygon style="fill:#92E3A9;stroke:#263238;stroke-linecap:round;stroke-linejoin:round;stroke-miterlimit:10;" points="
					660.888,378.609 653.39,391.796 678.281,397.262 684.992,383.677 				"/>
				
					<line style="fill:#92E3A9;stroke:#263238;stroke-linecap:round;stroke-linejoin:round;stroke-miterlimit:10;" x1="681.947" y1="373.344" x2="681.947" y2="382.683"/>
			</g>
			
				<line style="fill:none;stroke:#FFFFFF;stroke-linecap:round;stroke-linejoin:round;stroke-miterlimit:10;" x1="659.985" y1="367.933" x2="666.94" y2="374.048"/>
			
				<line style="fill:none;stroke:#FFFFFF;stroke-linecap:round;stroke-linejoin:round;stroke-miterlimit:10;" x1="704.835" y1="367.933" x2="697.879" y2="374.048"/>
			
				<line style="fill:none;stroke:#FFFFFF;stroke-linecap:round;stroke-linejoin:round;stroke-miterlimit:10;" x1="682.05" y1="360.258" x2="682.05" y2="369.851"/>
		</g>
	</g>
</g>
<g id="Character_2">
	<g>
		<path style="fill:#263238;stroke:#263238;stroke-linecap:round;stroke-linejoin:round;stroke-miterlimit:10;" d="M365.746,246.647
			c0,0-8.101-3.574-13.82,0.477c-5.719,4.051-4.766,6.195-4.766,6.195s-5.004-3.336-7.386-0.477
			c-2.383,2.859,0.477,4.289,0.238,5.242c-0.238,0.953-3.336,0.715-2.621,2.859c0.715,2.145,3.336,3.336,3.336,3.336
			s-1.906,1.906-0.238,3.336c1.668,1.43,2.383,2.383,1.906,3.098c-0.477,0.715-2.621,0.953-0.953,2.383
			c1.668,1.43,4.527,1.668,4.527,0s-0.953-2.621,0-4.051c0.953-1.43,3.87-2.999,3.365-1.38c-0.505,1.619,3.307,9.958,3.307,9.958
			s-0.67-0.159-2.956,2.184s-0.618,3.296-1.095,4.011c-0.477,0.715-3.336-0.238-3.574,1.43c-0.238,1.668,0,2.383,0.238,3.097
			c0.238,0.715,25.257,2.621,26.925,2.383c1.668-0.238,5.48-0.715,6.195-1.906c0.715-1.191-0.953-5.242-1.906-6.195
			c-0.953-0.953,1.191-2.383,0.477-4.051c-0.715-1.668-5.839-3.93-5.839-3.93s1.789-2.266,2.027-3.219
			c0.238-0.953-3.018-3.513-3.018-3.513s5.401-3.873,4.686-9.115c-0.715-5.242-2.383-6.91-2.383-6.91
			S369.797,246.17,365.746,246.647z"/>
		<g>
			<path style="fill:#FFFFFF;stroke:#263238;stroke-linecap:round;stroke-linejoin:round;stroke-miterlimit:10;" d="M324.353,322.85
				c5.175-4.009,16.12-22.18,16.12-22.18s1.321,9.28,2.857,13.71s3.622,7.335,3.099,12.425c-0.002,0.018-0.045-0.786-0.048-0.768
				l28.066,0.824c-0.859-1.549-1.408-1.835-1.536-2.51c-0.455-2.394,1.993-7.69,2.02-10.11c0.027-2.42,1.868-7.038,1.868-7.038
				s8.093,17.939,9.951,19.448c1.858,1.51,7.065,2.35,6.753-3.277c-0.312-5.627-9.745-27.362-11.405-31.14
				c-1.661-3.778-3.742-6.404-7.752-6.021c-4.01,0.384-4.939,1.08-7.672,1.232c-2.733,0.152-1.526-12.978-1.526-12.978
				s-4.305,3.787-9.914,1.517c0,0,0.705,6.895-0.465,9.056c-1.17,2.161-1.778,2.84-4.573,1.866
				c-2.795-0.974-7.171-4.279-9.842-3.002c-2.671,1.277-21.421,32.472-22.886,35.134c-0.968,1.759-3.583,6.274-2.801,7.477
				L324.353,322.85z"/>
		</g>
		<g>
			<path style="fill:#92E3A9;stroke:#263238;stroke-linecap:round;stroke-linejoin:round;stroke-miterlimit:10;" d="
				M346.428,326.805c0.027-0.262,0.043-0.514,0.056-0.765l-0.104-0.003C346.383,326.019,346.426,326.823,346.428,326.805z"/>
			<path style="fill:#263238;stroke:#263238;stroke-linecap:round;stroke-linejoin:round;stroke-miterlimit:10;" d="
				M340.349,283.906c-2.671,1.277-21.421,32.473-22.886,35.134c-0.968,1.759-3.583,6.274-2.801,7.477l9.691-3.667
				c5.175-4.009,16.12-22.18,16.12-22.18s1.321,9.28,2.857,13.71c1.457,4.202,3.404,7.035,3.155,11.66l27.961,0.82
				c-0.859-1.549-1.408-1.835-1.536-2.51c-0.455-2.394,1.993-7.69,2.02-10.11c0.027-2.42,1.868-7.038,1.868-7.038
				s8.093,17.939,9.951,19.448c1.858,1.51,7.065,2.35,6.752-3.277c-0.312-5.627-9.745-27.362-11.405-31.14
				c-1.661-3.778-3.742-6.404-7.752-6.021c-1.969,0.188-3.194,0.452-4.255,0.689l-11.623,14.15l-8.272-14.145
				C347.396,285.934,343.02,282.629,340.349,283.906z"/>
		</g>
		<path style="fill:#263238;stroke:#263238;stroke-linecap:round;stroke-linejoin:round;stroke-miterlimit:10;" d="M346.74,324.647
			c0,0-14.808,12.797-15.144,24.851c-0.116,4.18,0.685,13.519,7.818,14.503c7.133,0.984,38.809,0,38.809,0s2.46-0.738,3.935-9.101
			c1.476-8.363-9.347-29.761-9.347-29.761L346.74,324.647z"/>
		<g>
			<path style="fill:#FFFFFF;stroke:#263238;stroke-linecap:round;stroke-linejoin:round;stroke-miterlimit:10;" d="
				M357.614,329.741c0,0-2.698,3.352-3.107,3.516c-0.409,0.163-0.899,1.472-1.799,3.434c-0.899,1.962-0.654,2.126,0.409,1.635
				c1.063-0.491,2.126-2.698,2.126-2.698l2.044-1.308C357.287,334.319,359.331,329.168,357.614,329.741z"/>
			<path style="fill:#FFFFFF;stroke:#263238;stroke-linecap:round;stroke-linejoin:round;stroke-miterlimit:10;" d="
				M385.335,320.759c0,0-2.53,3.422-8.41,6.037c-5.879,2.615-11.587,1.837-14.804,1.98c-3.217,0.143-3.7-0.577-5.069,1.998
				c-1.368,2.575-0.151,9.645,0.514,10.099c0.665,0.454,0.745-2.805,0.745-2.805s0.591,3.133,1.528,3.188
				c0.937,0.055,1.235-2.666,1.235-2.666s0.827,1.93,1.589,1.67c0.762-0.26,0.606-2.316,0.606-2.316s0.924,1.216,1.378,0.551
				c0.454-0.665-0.64-4.708-0.64-4.708s4.168,0.683,5.692,0.164c1.524-0.519,2.341-1.716,2.341-1.716s7.583,0.028,12.192-0.725
				c4.608-0.753,11.003-5.55,9.517-8.514c-1.485-2.964-6.368-3.631-6.368-3.631"/>
			<path style="fill:none;stroke:#263238;stroke-linecap:round;stroke-linejoin:round;stroke-miterlimit:10;" d="M363.27,337.944
				c0,0-1.515-4.349-0.915-6.084"/>
			<path style="fill:none;stroke:#263238;stroke-linecap:round;stroke-linejoin:round;stroke-miterlimit:10;" d="M361.074,338.59
				c0,0-1.025-4.209-0.818-6.797"/>
			<path style="fill:none;stroke:#263238;stroke-linecap:round;stroke-linejoin:round;stroke-miterlimit:10;" d="M358.311,338.068
				c0,0-0.753-4.608-0.25-5.63"/>
			<path style="fill:#FFFFFF;stroke:#263238;stroke-linecap:round;stroke-linejoin:round;stroke-miterlimit:10;" d="M356.06,333.093
				"/>
			<path style="fill:#263238;stroke:#263238;stroke-linecap:round;stroke-linejoin:round;stroke-miterlimit:10;" d="
				M385.335,320.759c0,0-1.335,1.795-4.298,3.777c1.57,1.18,3.194,3.25,3.743,6.866c4.548-1.018,10.398-5.557,8.97-8.406
				c-1.485-2.964-6.368-3.631-6.368-3.631"/>
		</g>
		<g>
			<path style="fill:#FFFFFF;stroke:#263238;stroke-linecap:round;stroke-linejoin:round;stroke-miterlimit:10;" d="M339.13,311.174
				c0,0,1.65-0.376,3.392-1.18c1.742-0.804,2.948-2.546,3.484-1.876c0.536,0.67,0.148,1.894-0.864,2.756
				c-1.012,0.862-3.96,2.336-3.96,2.336S338.003,312.594,339.13,311.174z"/>
			<path style="fill:#FFFFFF;stroke:#263238;stroke-linecap:round;stroke-linejoin:round;stroke-miterlimit:10;" d="
				M331.788,318.065c0,0,3.987-10.594,5.81-10.63c1.823-0.036,10.424,1.498,10.016,2.357c-0.409,0.859-1.437,1.122-2.471,1.082
				c-1.034-0.041-4.885-1.12-4.885-1.12l-1.127,1.42c0,0,3.974,1.138,4.587,1.43c0.614,0.292,2.969,2.617,2.379,3.54
				c-0.59,0.923-0.841,0.503-0.841,0.503s0.322,0.906-0.029,1.642c-0.35,0.736-0.719,0.561-0.719,0.561l0,0
				c-0.078,0.815-0.911,1.332-1.675,1.038c-0.895-0.345-0.908-2.044-2.008-1.907c-1.243,0.155-1.441-0.064-1.441-0.064
				s-2.208,2.11-3.767,3.174c-1.56,1.064-3.505,1.041-3.505,1.041s-7.333,6.176-13.541,6.952c-6.912,0.863-4.564-6.573-1.106-10.044
				C320.921,315.568,331.788,318.065,331.788,318.065z"/>
			<path style="fill:none;stroke:#263238;stroke-linecap:round;stroke-linejoin:round;stroke-miterlimit:10;" d="M345.255,316.647
				c0,0-1.321-2.17-2.176-2.577c-0.855-0.407-3.671-0.829-3.671-0.829"/>
			<path style="fill:none;stroke:#263238;stroke-linecap:round;stroke-linejoin:round;stroke-miterlimit:10;" d="M344.508,318.85
				c0,0-2.029-2.967-2.666-3.008c-0.636-0.04-2.709-0.371-2.709-0.371"/>
			<path style="fill:#263238;stroke:#263238;stroke-linecap:round;stroke-linejoin:round;stroke-miterlimit:10;" d="
				M320.255,322.972c0.278-2.413,1.776-4.45,3.009-5.756c-2.326,0.094-4.549,0.566-5.801,1.823
				c-3.458,3.472-5.805,10.908,1.106,10.044c1.357-0.17,2.766-0.606,4.143-1.17C321.337,326.777,320.009,325.104,320.255,322.972z"
				/>
		</g>
		<path style="fill:#FFFFFF;stroke:#263238;stroke-linecap:round;stroke-linejoin:round;stroke-miterlimit:10;" d="M349.334,267.664
			c0,0-1.505-0.692-1.505,1.119c0,1.811,0.272,2.806,1.811,3.802c1.539,0.996,0.272-6.246,0.272-6.246L349.334,267.664z"/>
		<g>
			<path style="fill:#FFFFFF;stroke:#263238;stroke-linecap:round;stroke-linejoin:round;stroke-miterlimit:10;" d="
				M358.785,254.966c0,0-2.355,0.561-2.378,2.361c-0.023,1.8,0.243,2.408-1.132,2.967c-1.375,0.559-2.116,1.01-1.901,2.28
				c0.214,1.27,0.771,1.666-0.976,1.961c-1.746,0.295-1.616-0.87-1.984,0.824c-0.367,1.695-0.446,2.198-1.081,2.305
				c-0.635,0.107,0.144,5.691,1.686,9.023c1.542,3.332,5.152,8.275,7.323,8.562c2.171,0.287,4.957-2.33,6.9-4.593
				c1.746-2.033,4.325-8.241,4.325-8.241l0.555-0.584c0,0,0.979-0.002,1.241-1.352c0,0-0.189-2.091-1.249-2.565
				c-1.06-0.474-2.148-2.087-2.229-2.563c-0.08-0.476,0.448-1.219-0.268-1.588c-0.715-0.369-1.907-0.658-2.253-1.743
				c-0.346-1.085,0.842-2.755-0.562-3.334c-1.404-0.58-2.144-0.128-2.332-1.24c-0.188-1.111,0.419-2.357-0.641-2.831
				C360.769,254.141,358.785,254.966,358.785,254.966z"/>
			<path style="fill:none;stroke:#263238;stroke-linecap:round;stroke-linejoin:round;stroke-miterlimit:10;" d="M357.335,270.232
				c0,0,0.634,1.992-0.09,3.531c-0.724,1.539,1.629,1.539,2.082,0.362"/>
			<path style="fill:#FFFFFF;stroke:#263238;stroke-linecap:round;stroke-linejoin:round;stroke-miterlimit:10;" d="M368.741,268.24
				c0,0,1.901-2.535,2.625-1.63c0.724,0.905,1.086,4.436,0,5.703c-1.086,1.267-3.078,0.543-3.078,0.543"/>
			<g>
				<path style="fill:#263238;" d="M355.679,269.684c0.167,0.991-0.028,1.85-0.436,1.918c-0.408,0.069-0.874-0.678-1.041-1.669
					c-0.167-0.991,0.028-1.85,0.436-1.918C355.045,267.946,355.511,268.693,355.679,269.684z"/>
				<path style="fill:#263238;" d="M362.955,269.785c-0.011,1.005-0.355,1.815-0.769,1.811c-0.414-0.005-0.74-0.823-0.729-1.827
					c0.011-1.005,0.355-1.816,0.769-1.811C362.639,267.962,362.966,268.78,362.955,269.785z"/>
				<path style="fill:none;stroke:#263238;stroke-linecap:round;stroke-linejoin:round;stroke-miterlimit:10;" d="M356.098,277.318
					c0,0,1.545,2.064,5.975,0.015"/>
			</g>
		</g>
		<g>
			<path style="fill:#FFFFFF;stroke:#263238;stroke-linecap:round;stroke-linejoin:round;stroke-miterlimit:10;" d="M362.45,343.286
				c-1.196,0.183-2.357,0.634-3.402,1.4c-4.585,3.359-3.406,10.94-3.564,15.962c-0.199,6.313-0.401,12.625-0.609,18.937
				c-0.306,9.28-0.445,18.594-1.042,27.861c-0.458,7.107-3.613,10.112-2.087,17.669c1.526,7.558,5.499,5.898,7.621-1.078
				c2.122-6.976,0.351-12.485,0.099-15.559c-0.196-2.391,10.788-38.628,13.736-55.036C374.292,347.371,368,342.437,362.45,343.286z"
				/>
		</g>
		<path style="fill:#263238;stroke:#263238;stroke-linecap:round;stroke-linejoin:round;stroke-miterlimit:10;" d="M360.303,419.191
			c-0.221,0.033-0.422,0.155-0.582,0.42c-1.062,1.77-4.603,4.603-6.196,1.77c-1.593-2.832,0-9.56,0-9.56l-0.466,0.477
			c-1.008,4.117-2.443,7.22-1.313,12.816c1.527,7.558,5.499,5.898,7.621-1.078C359.887,422.328,360.171,420.709,360.303,419.191z"/>
		<g>
			<path style="fill:#FFFFFF;stroke:#263238;stroke-linecap:round;stroke-linejoin:round;stroke-miterlimit:10;" d="
				M343.878,342.721c1.209-0.041,2.433,0.188,3.602,0.748c5.126,2.455,5.366,10.124,6.449,15.03c1.36,6.168,2.724,12.334,4.093,18.5
				c2.014,9.064,3.868,18.192,6.166,27.19c1.761,6.9,4.136,12.315,4.03,20.025c-0.106,7.71-4.316,6.812-7.689,0.347
				c-3.373-6.465-1.368-15.25-1.687-18.318c-0.249-2.386-17.731-35.974-23.656-51.556
				C332.994,348.921,338.267,342.911,343.878,342.721z"/>
		</g>
		<path style="fill:#263238;stroke:#263238;stroke-linecap:round;stroke-linejoin:round;stroke-miterlimit:10;" d="M367.5,416.556
			c-0.016,0.208-0.058,0.749-0.167,2.17c-0.177,2.301-1.593,4.957-4.603,4.072c-3.01-0.885-3.895-7.258-3.895-7.258l-0.263,0.571
			c0.114,2.843,0.592,5.835,1.957,8.45c3.373,6.465,7.583,7.363,7.689-0.346c0.024-1.775-0.087-3.426-0.288-5.004
			c-0.106-0.71-0.201-1.34-0.273-1.818C367.607,417.111,367.555,416.833,367.5,416.556z"/>
		<g>
			
				<rect x="329.591" y="312.817" style="fill:#BFBFBF;stroke:#263238;stroke-linecap:round;stroke-linejoin:round;stroke-miterlimit:10;" width="48.193" height="29.939"/>
			
				<rect x="329.591" y="342.072" style="fill:#BFBFBF;stroke:#263238;stroke-linecap:round;stroke-linejoin:round;stroke-miterlimit:10;" width="48.193" height="1.731"/>
		</g>
		<path style="fill:none;stroke:#263238;stroke-linecap:round;stroke-linejoin:round;stroke-miterlimit:10;" d="M352.446,266.882
			c0,0,1.086-0.996,3.259-0.543"/>
		<path style="fill:none;stroke:#263238;stroke-linecap:round;stroke-linejoin:round;stroke-miterlimit:10;" d="M360.141,266.067
			c0,0,2.806-0.453,4.074,1.177"/>
	</g>
</g>
<g id="Character_1">
	<g>
		<polygon style="fill:#FFFFFF;stroke:#263238;stroke-linecap:round;stroke-linejoin:round;stroke-miterlimit:10;" points="
			124.572,198.206 120.728,201.937 121.181,209.173 127.625,201.145 		"/>
		<g>
			<path style="fill:#FFFFFF;stroke:#263238;stroke-linecap:round;stroke-linejoin:round;stroke-miterlimit:10;" d="
				M117.287,139.563c0,0,2.77,5.409,2.243,8.179s-0.528,5.277,0.396,6.728c0.923,1.451,2.77,2.243,1.847,3.298
				c-0.923,1.055-2.77,1.979-2.77,1.979s-0.792,3.562-1.451,5.805c-0.66,2.243-0.528,2.639-2.902,2.902
				c-2.375,0.264-3.694,0.132-3.694,0.132s-1.055-5.277-1.847-15.435C108.316,142.993,117.287,139.563,117.287,139.563z"/>
			<path style="fill:#263238;" d="M118.295,152.223c0,0.895-0.233,1.62-0.521,1.62s-0.521-0.725-0.521-1.62
				c0-0.895,0.233-1.62,0.521-1.62S118.295,151.329,118.295,152.223z"/>
			<path style="fill:none;stroke:#263238;stroke-linecap:round;stroke-linejoin:round;stroke-miterlimit:10;" d="M116.097,149.331
				c0,0,2.006-3.178,3.433-1.589"/>
			<path style="fill:none;stroke:#263238;stroke-linecap:round;stroke-linejoin:round;stroke-miterlimit:10;" d="M118.295,162.289
				c0,0-1.62-0.116-2.314-1.157"/>
		</g>
		<g>
			<path style="fill:#FFFFFF;stroke:#263238;stroke-linecap:round;stroke-linejoin:round;stroke-miterlimit:10;" d="
				M140.364,182.974l17.309,7.156c0.795,0.329,1.07,1.318,0.558,2.01l-22.019,29.776c-0.413,0.558-1.187,0.703-1.773,0.33
				l-14.884-9.45c-0.59-0.375-0.746-1.167-0.342-1.738l19.565-27.626C139.136,182.928,139.794,182.738,140.364,182.974z"/>
		</g>
		<g>
			<polygon style="fill:#FFFFFF;stroke:#263238;stroke-linecap:round;stroke-linejoin:round;stroke-miterlimit:10;" points="
				139.736,184.759 156.701,191.773 135.652,220.293 121.115,211.064 			"/>
			<path style="fill:#FFFFFF;stroke:#263238;stroke-linecap:round;stroke-linejoin:round;stroke-miterlimit:10;" d="M124.12,199.223
				c0,0,2.6-3.279,3.279-3.844c0.678-0.565,4.409-2.261,5.088-3.166c0.678-0.904,0.904,1.583-0.339,2.374
				c-1.244,0.792-2.6,1.922-2.6,1.922s-0.565,2.035-1.922,3.053c-1.357,1.017-2.6,1.017-2.6,1.017"/>
		</g>
		<g>
			
				<rect x="144.375" y="187.504" transform="matrix(0.415 -0.9098 0.9098 0.415 -89.7262 244.0094)" style="fill:#92E3A9;" width="1.022" height="8.549"/>
		</g>
		<polygon style="fill:#92E3A9;" points="142.954,194.313 138.677,200.239 144.156,203.306 148.775,197.237 		"/>
		<polygon style="fill:#92E3A9;" points="137.021,191.023 127.99,203.86 130.204,205.1 139.322,192.263 		"/>
		<path style="fill:#263238;stroke:#263238;stroke-linecap:round;stroke-linejoin:round;stroke-miterlimit:10;" d="M93.54,223.071
			c0,0-6.201,13.456-5.937,22.427c0.264,8.971,4.749,18.997,5.409,20.712c0.659,1.715,3.694,17.282,3.034,23.879
			c-0.66,6.596-5.277,8.971-7.784,15.963c-2.507,6.992-5.937,28.232-6.332,33.377c-0.396,5.145-2.111,18.997-2.375,20.712
			c-0.264,1.715-0.264,3.562,0.924,3.562c1.187,0,20.053,0,20.053,0s1.319-0.132,1.055-0.923c-0.264-0.792-3.034-1.979-5.541-4.354
			c-2.507-2.375-6.992-5.277-7.256-7.256c-0.264-1.979,1.715-10.554,3.826-15.435c2.111-4.881,5.409-9.235,5.409-9.235
			s9.762-17.282,12.137-31.926c2.375-14.644,7.124-38.786,7.124-38.786v-30.87L93.54,223.071z"/>
		<path style="fill:#FFFFFF;stroke:#263238;stroke-linecap:round;stroke-linejoin:round;stroke-miterlimit:10;" d="M96.047,358.426
			c-2.507-2.375-6.992-5.277-7.256-7.256c-0.173-1.299,0.623-5.441,1.786-9.515l-8.731-1.207
			c-0.512,5.749-2.041,18.081-2.289,19.693c-0.264,1.715-0.264,3.562,0.924,3.562c1.187,0,20.053,0,20.053,0
			s1.319-0.132,1.055-0.924C101.324,361.988,98.553,360.801,96.047,358.426z"/>
		<path style="fill:#FFFFFF;stroke:#263238;stroke-linecap:round;stroke-linejoin:round;stroke-miterlimit:10;" d="M96.047,358.426
			c-1.633-1.548-4.102-3.318-5.7-4.912l-0.929,2.582c0,0-6.353-0.447-9.255-0.632c-0.29,2.343-0.522,4.13-0.606,4.677
			c-0.264,1.715-0.264,3.562,0.924,3.562c1.187,0,20.053,0,20.053,0s1.319-0.132,1.055-0.924
			C101.324,361.988,98.553,360.801,96.047,358.426z"/>
		<path style="fill:#263238;stroke:#263238;stroke-linecap:round;stroke-linejoin:round;stroke-miterlimit:10;" d="M93.672,254.205
			l3.43,4.222c0,0,2.638,13.984,3.562,23.746c0.924,9.762,0.264,9.762-1.319,17.678c-1.583,7.916-3.694,12.137-2.507,18.733
			c1.187,6.596,3.166,39.05,3.43,40.501c0.264,1.451-0.376,4.09,1.075,4.617c1.451,0.528,23.331,0,23.331,0s1.583-1.715,0.66-2.507
			c-0.923-0.792-8.34-3.172-11.638-5.811c-3.298-2.638-4.705-3.528-4.969-5.111c-0.264-1.583,1.04-24.566,3.415-34.065
			c2.375-9.499,5.145-26.121,6.992-34.564c1.847-8.443,3.694-18.733,2.375-37.994c-0.347-5.063-1.451-7.256-1.451-8.179
			c0-0.924-0.264-9.894-0.132-10.422c0.132-0.528-22.823-1.847-22.823-1.847"/>
		<path style="fill:#FFFFFF;stroke:#263238;stroke-linecap:round;stroke-linejoin:round;stroke-miterlimit:10;" d="M108.843,177.557
			c0,0,12.797,19.261,12.797,24.538c0,5.277,1.451,22.427-0.396,23.219c-1.847,0.792-13.588,1.319-18.074,0.792
			c-4.485-0.528-9.235-1.451-10.422-2.902c-1.187-1.451-1.767-1.898-2.295-7.439c-0.528-5.541-3.24-18.666-3.372-26.053
			c-0.132-7.388,10.416-15.848,14.109-15.056C104.886,175.446,108.843,177.557,108.843,177.557z"/>
		<path style="fill:#FFFFFF;stroke:#263238;stroke-linecap:round;stroke-linejoin:round;stroke-miterlimit:10;" d="M129.596,203.481
			c0,0,1.333-2.932,2.266-3.732c0.933-0.8,5.331-3.999,5.865-2.799c0.533,1.2,0,1.333-0.8,1.733c-0.8,0.4-3.332,3.332-3.332,3.332
			s2.399,0.8,2.799,1.2c0.4,0.4,1.2,1.466,0.933,2.399c-0.267,0.933-0.533,2.666-1.2,2.932c-0.666,0.267-1.066-0.933-1.066-0.933
			s-2.932,3.066-3.599,3.465c-0.666,0.4-1.466,0.533-1.466,0.533s-23.755,14.543-25.487,15.476c-1.733,0.933-3.999,1.6-4.932,0.667
			c-0.933-0.933-8.76-33.847-9.426-37.046c-0.666-3.199,0.133-9.997,5.731-9.863c5.598,0.133,7.601,5.028,8.53,8.797
			c0.602,2.442,2.975,25.41,2.975,25.41l19.673-6.869L129.596,203.481z"/>
		<path style="fill:#263238;stroke:#263238;stroke-linecap:round;stroke-linejoin:round;stroke-miterlimit:10;" d="M118.79,139.136
			c0,0,0.528,0.911-2.836,6.493c-3.364,5.582-3.853,8.118-2.461,11.572c1.391,3.454,0.919,7.099-1.236,10.336
			c-2.155,3.238-3.257,1.902-2.639,7.004c0.618,5.102-4.333,6.719-7.137,6.45c-2.803-0.268-5.981-5.616-8.594-4.021
			c-2.613,1.595,0.478,6.565-2.245,8.026c-2.723,1.461-10.325-1.358-11.606-4.679c-1.281-3.321,1.402-5.647-0.756-8.805
			c-2.158-3.159-5.268-4.072-3.036-9.393c2.232-5.321,8.483-5.092,8.699-8.638c0.217-3.546,0.658-14.574,4.416-19.134
			c3.758-4.56,11.86-4.399,16.544-3.212C110.586,132.323,118.988,137.064,118.79,139.136z"/>
		<path style="fill:#FFFFFF;stroke:#263238;stroke-linecap:round;stroke-linejoin:round;stroke-miterlimit:10;" d="M113.696,355.386
			c-3.298-2.638-4.705-3.528-4.969-5.111c-0.094-0.563,0.011-3.833,0.291-8.235H98.994c0.633,8.62,1.149,16.354,1.275,17.046
			c0.264,1.451-0.376,4.09,1.075,4.617c1.451,0.528,23.331,0,23.331,0s1.583-1.715,0.66-2.507
			C124.411,360.405,116.994,358.024,113.696,355.386z"/>
		<path style="fill:#FFFFFF;stroke:#263238;stroke-linecap:round;stroke-linejoin:round;stroke-miterlimit:10;" d="M124.675,363.703
			c0,0,1.583-1.715,0.66-2.507c-0.923-0.792-8.34-3.172-11.638-5.81c-1.269-1.016-2.256-1.771-3.008-2.407
			c-0.079,0.197-0.163,0.419-0.257,0.704c-0.568,1.704-0.994,3.265-0.994,3.265l-9.413-0.672c0.118,1.566,0.204,2.58,0.245,2.81
			c0.264,1.451-0.376,4.09,1.075,4.617C102.795,364.231,124.675,363.703,124.675,363.703z"/>
	</g>
</g>
<g id="Documents">
	<g>
		<g>
			<polygon style="fill:none;stroke:#263238;stroke-linejoin:round;stroke-miterlimit:10;" points="176.318,92.548 143.02,92.548 
				143.02,49.403 168.73,49.403 176.318,56.053 			"/>
			<polygon style="fill:none;stroke:#263238;stroke-linejoin:round;stroke-miterlimit:10;" points="168.73,49.403 168.73,56.437 
				176.318,56.437 			"/>
			
				<line style="fill:none;stroke:#263238;stroke-linejoin:round;stroke-miterlimit:10;" x1="148.584" y1="62.001" x2="169.69" y2="62.001"/>
			
				<line style="fill:none;stroke:#263238;stroke-linejoin:round;stroke-miterlimit:10;" x1="148.584" y1="67.373" x2="169.69" y2="67.373"/>
			
				<line style="fill:none;stroke:#263238;stroke-linejoin:round;stroke-miterlimit:10;" x1="148.584" y1="72.746" x2="169.69" y2="72.746"/>
			
				<line style="fill:none;stroke:#263238;stroke-linejoin:round;stroke-miterlimit:10;" x1="148.584" y1="78.118" x2="169.69" y2="78.118"/>
			
				<line style="fill:none;stroke:#263238;stroke-linejoin:round;stroke-miterlimit:10;" x1="148.584" y1="83.491" x2="169.69" y2="83.491"/>
		</g>
		<g>
			<polygon style="fill:none;stroke:#263238;stroke-linejoin:round;stroke-miterlimit:10;" points="212.448,108.76 179.15,108.76 
				179.15,65.615 204.86,65.615 212.448,72.265 			"/>
			<polygon style="fill:none;stroke:#263238;stroke-linejoin:round;stroke-miterlimit:10;" points="204.86,65.615 204.86,72.649 
				212.448,72.649 			"/>
			
				<line style="fill:none;stroke:#263238;stroke-linejoin:round;stroke-miterlimit:10;" x1="184.714" y1="78.213" x2="205.82" y2="78.213"/>
			
				<line style="fill:none;stroke:#263238;stroke-linejoin:round;stroke-miterlimit:10;" x1="184.714" y1="83.585" x2="205.82" y2="83.585"/>
			
				<line style="fill:none;stroke:#263238;stroke-linejoin:round;stroke-miterlimit:10;" x1="184.714" y1="88.958" x2="205.82" y2="88.958"/>
			
				<line style="fill:none;stroke:#263238;stroke-linejoin:round;stroke-miterlimit:10;" x1="184.714" y1="94.33" x2="205.82" y2="94.33"/>
			
				<line style="fill:none;stroke:#263238;stroke-linejoin:round;stroke-miterlimit:10;" x1="184.714" y1="99.703" x2="205.82" y2="99.703"/>
		</g>
		<g>
			<polygon style="fill:none;stroke:#263238;stroke-linejoin:round;stroke-miterlimit:10;" points="176.318,141.185 143.02,141.185 
				143.02,98.039 168.73,98.039 176.318,104.689 			"/>
			<polygon style="fill:none;stroke:#263238;stroke-linejoin:round;stroke-miterlimit:10;" points="168.73,98.039 168.73,105.073 
				176.318,105.073 			"/>
			
				<line style="fill:none;stroke:#263238;stroke-linejoin:round;stroke-miterlimit:10;" x1="148.584" y1="110.637" x2="169.69" y2="110.637"/>
			
				<line style="fill:none;stroke:#263238;stroke-linejoin:round;stroke-miterlimit:10;" x1="148.584" y1="116.01" x2="169.69" y2="116.01"/>
			
				<line style="fill:none;stroke:#263238;stroke-linejoin:round;stroke-miterlimit:10;" x1="148.584" y1="121.382" x2="169.69" y2="121.382"/>
			
				<line style="fill:none;stroke:#263238;stroke-linejoin:round;stroke-miterlimit:10;" x1="148.584" y1="126.755" x2="169.69" y2="126.755"/>
			
				<line style="fill:none;stroke:#263238;stroke-linejoin:round;stroke-miterlimit:10;" x1="148.584" y1="132.127" x2="169.69" y2="132.127"/>
		</g>
		<path style="fill:none;stroke:#263238;stroke-linejoin:round;stroke-miterlimit:10;" d="M211.41,151.646h-68.93
			c-5.027,0-9.102-4.075-9.102-9.102V50.452c0-5.027,4.075-9.102,9.102-9.102h68.93c5.027,0,9.102,4.075,9.102,9.102v92.092
			C220.512,147.571,216.436,151.646,211.41,151.646z"/>
		
			<line style="fill:none;stroke:#263238;stroke-linejoin:round;stroke-miterlimit:10;" x1="148.11" y1="152.197" x2="148.11" y2="183.43"/>
		
			<circle style="fill:#263238;stroke:#263238;stroke-linecap:round;stroke-linejoin:round;stroke-miterlimit:10;" cx="148.11" cy="184.863" r="1.433"/>
	</g>
</g>
<g id="Binder">
	<g>
		<g>
			
				<circle style="fill:#263238;stroke:#263238;stroke-linecap:round;stroke-linejoin:round;stroke-miterlimit:10;" cx="168.849" cy="390.236" r="41.806"/>
			<g>
				
					<rect x="150.874" y="365.51" style="fill:#FFFFFF;stroke:#263238;stroke-linecap:round;stroke-linejoin:round;stroke-miterlimit:10;" width="38.354" height="49.99"/>
				
					<rect x="152.805" y="368.027" style="fill:#92E3A9;stroke:#263238;stroke-linecap:round;stroke-linejoin:round;stroke-miterlimit:10;" width="34.492" height="44.956"/>
				<path style="fill:#92E3A9;stroke:#263238;stroke-linecap:round;stroke-linejoin:round;stroke-miterlimit:10;" d="
					M175.069,363.006h-1.429v-1.764h-7.177v1.764h-1.429c-1.248,0-2.26,1.012-2.26,2.26v4.375h14.555v-4.375
					C177.329,364.017,176.317,363.006,175.069,363.006z"/>
				
					<rect x="155.495" y="378.536" style="fill:#FFFFFF;stroke:#263238;stroke-linecap:round;stroke-linejoin:round;stroke-miterlimit:10;" width="6.1" height="6.1"/>
				
					<rect x="155.495" y="389.38" style="fill:#FFFFFF;stroke:#263238;stroke-linecap:round;stroke-linejoin:round;stroke-miterlimit:10;" width="6.1" height="6.1"/>
				
					<rect x="155.495" y="400.224" style="fill:#FFFFFF;stroke:#263238;stroke-linecap:round;stroke-linejoin:round;stroke-miterlimit:10;" width="6.1" height="6.1"/>
				
					<line style="fill:none;stroke:#263238;stroke-linecap:round;stroke-linejoin:round;stroke-miterlimit:10;" x1="164.532" y1="381.247" x2="183.283" y2="381.247"/>
				
					<line style="fill:none;stroke:#263238;stroke-linecap:round;stroke-linejoin:round;stroke-miterlimit:10;" x1="164.532" y1="392.995" x2="183.283" y2="392.995"/>
				
					<line style="fill:none;stroke:#263238;stroke-linecap:round;stroke-linejoin:round;stroke-miterlimit:10;" x1="164.532" y1="404.064" x2="183.283" y2="404.064"/>
				<polyline style="fill:none;stroke:#263238;stroke-linecap:round;stroke-linejoin:round;stroke-miterlimit:10;" points="
					157.257,380.354 158.606,382.513 163.464,377.026 				"/>
				<polyline style="fill:none;stroke:#263238;stroke-linecap:round;stroke-linejoin:round;stroke-miterlimit:10;" points="
					157.257,391.323 158.606,393.482 163.464,387.995 				"/>
				<polyline style="fill:none;stroke:#263238;stroke-linecap:round;stroke-linejoin:round;stroke-miterlimit:10;" points="
					157.257,402.292 158.606,404.451 163.464,398.963 				"/>
			</g>
		</g>
	</g>
</g>
<g id="Light_Bulb_1_">
	<g>
		<g>
			
				<circle style="fill:#263238;stroke:#263238;stroke-linecap:round;stroke-linejoin:round;stroke-miterlimit:10;" cx="52.812" cy="390.236" r="41.806"/>
			<g>
				<g>
					<path style="fill:#92E3A9;stroke:#263238;stroke-linecap:round;stroke-linejoin:round;stroke-miterlimit:10;" d="
						M60.011,404.662c0.578-0.69,0.896-1.577,0.896-2.687l0.205-1.231c0.597-3.47,2.183-8.825,4.356-11.595
						c2.043-2.612,3.265-5.905,3.265-9.478c0-9.086-7.864-16.334-17.155-15.299c-6.894,0.756-12.537,6.222-13.489,13.097
						c-0.634,4.599,0.765,8.871,3.424,12.061c2.369,2.836,3.75,8.526,4.235,12.192l0.028,0.252c0,1.138,0.336,2.043,0.942,2.743"/>
					<path style="fill:#FFFFFF;stroke:#263238;stroke-linecap:round;stroke-linejoin:round;stroke-miterlimit:10;" d="
						M60.056,408.59H47.162c-0.773,0-1.4-0.627-1.4-1.4v-1.123c0-0.773,0.627-1.4,1.4-1.4h12.895c0.774,0,1.4,0.627,1.4,1.4v1.123
						C61.457,407.963,60.83,408.59,60.056,408.59z"/>
					<path style="fill:#FFFFFF;stroke:#263238;stroke-linecap:round;stroke-linejoin:round;stroke-miterlimit:10;" d="
						M60.056,413.624H47.162c-0.773,0-1.4-0.627-1.4-1.4V411.1c0-0.773,0.627-1.4,1.4-1.4h12.895c0.774,0,1.4,0.627,1.4,1.4v1.123
						C61.457,412.997,60.83,413.624,60.056,413.624z"/>
					<path style="fill:#FFFFFF;stroke:#263238;stroke-linecap:round;stroke-linejoin:round;stroke-miterlimit:10;" d="
						M47.176,414.82c0.767,2.316,3.353,4.022,6.432,4.022c3.08,0,5.665-1.706,6.433-4.022H47.176z"/>
				</g>
				
					<line style="fill:none;stroke:#FFFFFF;stroke-linecap:round;stroke-linejoin:round;stroke-miterlimit:10;" x1="29.065" y1="380.379" x2="35.347" y2="380.379"/>
				
					<line style="fill:none;stroke:#FFFFFF;stroke-linecap:round;stroke-linejoin:round;stroke-miterlimit:10;" x1="36.412" y1="363.645" x2="40.855" y2="368.088"/>
				
					<line style="fill:none;stroke:#FFFFFF;stroke-linecap:round;stroke-linejoin:round;stroke-miterlimit:10;" x1="70.278" y1="380.379" x2="76.56" y2="380.379"/>
				
					<line style="fill:none;stroke:#FFFFFF;stroke-linecap:round;stroke-linejoin:round;stroke-miterlimit:10;" x1="65.242" y1="368.725" x2="69.684" y2="364.282"/>
				
					<line style="fill:none;stroke:#FFFFFF;stroke-linecap:round;stroke-linejoin:round;stroke-miterlimit:10;" x1="53.189" y1="356.757" x2="53.189" y2="362.537"/>
			</g>
		</g>
	</g>
</g>
</svg>
